<svg xmlns="http://www.w3.org/2000/svg" xmlns:brep="https://brep.io/icons"
     viewBox="-352 0 1937 2384" width="1937" height="2384" brep:glyph-name="icon_1F5CE" brep:unicode="1F5CE">
  <path d="M132.5 1947.0H1100.5V1705.0H132.5V1947.0ZM132.5 1463.0H1100.5V1221.0H132.5V1463.0ZM-109.5 2431.0Q-209.3 2431.0 -280.4 2359.9Q-351.5 2288.8 -351.5 2189.0V253.0Q-351.5 153.20000000000005 -280.4 82.09999999999991Q-209.3 11.0 -109.5 11.0H858.5L1584.5 737.0V2189.0Q1584.5 2288.8 1513.4 2359.9Q1442.3 2431.0 1342.5 2431.0H-109.5ZM737.5 858.0V253.0H-109.5Q-109.5 253.0 -109.5 253.0Q-109.5 253.0 -109.5 253.0V2189.0Q-109.5 2189.0 -109.5 2189.0Q-109.5 2189.0 -109.5 2189.0H1342.5Q1342.5 2189.0 1342.5 2189.0Q1342.5 2189.0 1342.5 2189.0V858.0H737.5ZM-109.5 253.0V858.0V253.0V858.0V2189.0Q-109.5 2189.0 -109.5 2189.0Q-109.5 2189.0 -109.5 2189.0Q-109.5 2189.0 -109.5 2189.0Q-109.5 2189.0 -109.5 2189.0V253.0Q-109.5 253.0 -109.5 253.0Q-109.5 253.0 -109.5 253.0Z" fill="#111"/>
</svg>
